<svg width="20" height="20" viewBox="0 0 20 20" fill="none" xmlns="http://www.w3.org/2000/svg">
<path d="M13.7209 13.385L14.1886 12.9205L13.1025 11.8293L12.6369 12.2939L13.7209 13.385ZM15.7566 12.7256L17.7165 13.7911L18.4497 12.4395L16.4909 11.375L15.7566 12.7256ZM18.0928 15.9079L16.6366 17.357L17.7206 18.4471L19.1768 16.9991L18.0928 15.9079ZM15.7484 17.8226C14.2614 17.962 10.4156 17.8379 6.24985 13.6968L5.16482 14.787C9.71004 19.3065 14.0368 19.528 15.892 19.3547L15.7484 17.8226ZM6.24985 13.6968C2.27996 9.74845 1.62156 6.42876 1.53952 4.98787L0.00325448 5.07504C0.105809 6.88821 0.921117 10.5679 5.16482 14.787L6.24985 13.6968ZM7.65997 7.35893L7.9543 7.06562L6.87133 5.97547L6.577 6.26775L7.65997 7.35893ZM8.18813 3.33777L6.89594 1.61075L5.66426 2.53374L6.95645 4.25973L8.18813 3.33777ZM2.54661 1.23438L0.9365 2.83423L2.02153 3.92541L3.63061 2.32556L2.54661 1.23438ZM7.11848 6.81334C6.57495 6.26775 6.57495 6.26775 6.57495 6.2698H6.57289L6.56982 6.2739C6.52108 6.32304 6.47744 6.37699 6.43957 6.43491C6.38419 6.51696 6.32369 6.62464 6.27241 6.76104C6.14758 7.11313 6.11647 7.49165 6.18216 7.8594C6.31958 8.74649 6.93081 9.91869 8.49579 11.4755L9.58082 10.3843C8.11531 8.92801 7.76663 8.04194 7.70202 7.62352C7.67125 7.42456 7.70305 7.32611 7.71228 7.30355C7.71843 7.28988 7.71843 7.28783 7.71228 7.2974C7.70313 7.31155 7.69284 7.32493 7.68151 7.33739L7.67125 7.34765L7.661 7.35688L7.11848 6.81334ZM8.49579 11.4755C10.0618 13.0322 11.2401 13.6394 12.1283 13.7747C12.5826 13.8445 12.9487 13.7891 13.2266 13.6855C13.3823 13.6286 13.5278 13.5468 13.6574 13.4435L13.7086 13.3973L13.7158 13.3912L13.7189 13.3881L13.7199 13.3861C13.7199 13.3861 13.7209 13.385 13.1784 12.8394C12.6349 12.2939 12.638 12.2928 12.638 12.2928L12.64 12.2908L12.6421 12.2887L12.6482 12.2836L12.6585 12.2733L12.6974 12.2426C12.707 12.2364 12.7046 12.2371 12.6903 12.2446C12.6646 12.2539 12.5641 12.2856 12.3621 12.2549C11.9375 12.1892 11.0453 11.8406 9.58082 10.3843L8.49579 11.4755ZM6.89594 1.60973C5.84989 0.214985 3.79469 -0.00653267 2.54661 1.23438L3.63061 2.32556C4.1762 1.78304 5.14431 1.83945 5.66426 2.53374L6.89594 1.60973ZM1.54055 4.9889C1.52004 4.63406 1.6831 4.26281 2.02153 3.92643L0.935475 2.83525C0.384757 3.38289 -0.0490483 4.1582 0.00325448 5.07504L1.54055 4.9889ZM16.6366 17.357C16.3556 17.638 16.052 17.7959 15.7495 17.8236L15.892 19.3547C16.6458 19.284 17.2621 18.9045 17.7216 18.4481L16.6366 17.357ZM7.9543 7.06562C8.96446 6.06162 9.03933 4.4751 8.18915 3.33879L6.95747 4.26076C7.37077 4.81353 7.30924 5.53859 6.8703 5.9765L7.9543 7.06562ZM17.7175 13.7922C18.5554 14.2475 18.6856 15.3202 18.0939 15.9089L19.1789 16.9991C20.5531 15.632 20.1296 13.3522 18.4508 12.4405L17.7175 13.7922ZM14.1886 12.9215C14.5824 12.5297 15.2162 12.4333 15.7577 12.7266L16.492 11.376C15.3803 10.7709 14.0019 10.9381 13.1036 11.8303L14.1886 12.9215Z" fill="black"/>
</svg>
