<svg width="20" height="23" viewBox="0 0 20 23" fill="none" xmlns="http://www.w3.org/2000/svg">
<path d="M10 0.407715C15.523 0.407715 20 4.88472 20 10.4077C20 15.9307 15.523 20.4077 10 20.4077C4.477 20.4077 0 15.9307 0 10.4077C0 4.88472 4.477 0.407715 10 0.407715ZM10 2.40771C7.87827 2.40771 5.84344 3.25057 4.34315 4.75086C2.84285 6.25115 2 8.28598 2 10.4077C2 12.5294 2.84285 14.5643 4.34315 16.0646C5.84344 17.5649 7.87827 18.4077 10 18.4077C12.1217 18.4077 14.1566 17.5649 15.6569 16.0646C17.1571 14.5643 18 12.5294 18 10.4077C18 8.28598 17.1571 6.25115 15.6569 4.75086C14.1566 3.25057 12.1217 2.40771 10 2.40771ZM10 4.40771C10.2449 4.40775 10.4813 4.49767 10.6644 4.66043C10.8474 4.82319 10.9643 5.04746 10.993 5.29071L11 5.40771V9.99372L13.707 12.7007C13.8863 12.8807 13.9905 13.1221 13.9982 13.3761C14.006 13.63 13.9168 13.8774 13.7488 14.068C13.5807 14.2586 13.3464 14.378 13.0935 14.4021C12.8406 14.4262 12.588 14.3531 12.387 14.1977L12.293 14.1147L9.293 11.1147C9.13758 10.9592 9.03776 10.7567 9.009 10.5387L9 10.4077V5.40771C9 5.1425 9.10536 4.88814 9.29289 4.70061C9.48043 4.51307 9.73478 4.40771 10 4.40771Z" fill="black"/>
</svg>
