<svg width="20" height="16" viewBox="0 0 20 16" fill="none" xmlns="http://www.w3.org/2000/svg">
<path fill-rule="evenodd" clip-rule="evenodd" d="M18.6875 2.51271L10.7963 9.04771C10.572 9.2335 10.29 9.33517 9.99875 9.33517C9.70755 9.33517 9.42549 9.2335 9.20125 9.04771L1.31375 2.51271C1.27143 2.6401 1.2499 2.77348 1.25 2.90771V12.9077C1.25 13.2392 1.3817 13.5572 1.61612 13.7916C1.85054 14.026 2.16848 14.1577 2.5 14.1577H17.5C17.8315 14.1577 18.1495 14.026 18.3839 13.7916C18.6183 13.5572 18.75 13.2392 18.75 12.9077V2.90771C18.7505 2.77355 18.7294 2.64017 18.6875 2.51271ZM2.5 0.407715H17.5C18.163 0.407715 18.7989 0.671107 19.2678 1.13995C19.7366 1.60879 20 2.24467 20 2.90771V12.9077C20 13.5708 19.7366 14.2066 19.2678 14.6755C18.7989 15.1443 18.163 15.4077 17.5 15.4077H2.5C1.83696 15.4077 1.20107 15.1443 0.732233 14.6755C0.263392 14.2066 0 13.5708 0 12.9077V2.90771C0 2.24467 0.263392 1.60879 0.732233 1.13995C1.20107 0.671107 1.83696 0.407715 2.5 0.407715ZM2.2375 1.65771L9.2075 7.41147C9.43073 7.59585 9.71105 7.69702 10.0006 7.6977C10.2901 7.69838 10.5709 7.59854 10.795 7.41521L17.835 1.65771H2.2375Z" fill="black"/>
</svg>
