<svg width="20" height="23" viewBox="0 0 20 23" fill="none" xmlns="http://www.w3.org/2000/svg">
<path fill-rule="evenodd" clip-rule="evenodd" d="M10 0C12.6522 0 15.1957 1.05357 17.0711 2.92893C18.9464 4.8043 20 7.34783 20 10C20 13.4156 18.1378 16.2111 16.1756 18.2167C15.1952 19.2078 14.1255 20.1065 12.98 20.9011L12.5067 21.2233L12.2844 21.3711L11.8656 21.6378L11.4922 21.8656L11.03 22.1344C10.7163 22.3135 10.3613 22.4077 10 22.4077C9.63875 22.4077 9.28374 22.3135 8.97 22.1344L8.50778 21.8656L7.93 21.51L7.71667 21.3711L7.26111 21.0678C6.02537 20.2317 4.87434 19.2768 3.82444 18.2167C1.86222 16.21 0 13.4156 0 10C0 7.34783 1.05357 4.8043 2.92893 2.92893C4.8043 1.05357 7.34784 0 10 0ZM10 2.22222C7.93721 2.22222 5.9589 3.04166 4.50028 4.50028C3.04166 5.9589 2.22222 7.9372 2.22222 10C2.22222 12.58 3.63556 14.8444 5.41222 16.6622C6.17615 17.4355 7.00184 18.1453 7.88111 18.7844L8.39 19.1467C8.55444 19.2615 8.71259 19.3681 8.86444 19.4667L9.29778 19.7444L9.67889 19.9767L10 20.1644L10.5056 19.8656L10.9133 19.61C11.1304 19.4722 11.3626 19.3178 11.61 19.1467L12.1189 18.7844C12.9982 18.1453 13.8239 17.4355 14.5878 16.6622C16.3644 14.8456 17.7778 12.58 17.7778 10C17.7778 7.9372 16.9583 5.9589 15.4997 4.50028C14.0411 3.04166 12.0628 2.22222 10 2.22222ZM10 5.55556C11.1787 5.55556 12.3092 6.02381 13.1427 6.8573C13.9762 7.6908 14.4444 8.82126 14.4444 10C14.4444 11.1787 13.9762 12.3092 13.1427 13.1427C12.3092 13.9762 11.1787 14.4444 10 14.4444C8.82126 14.4444 7.6908 13.9762 6.8573 13.1427C6.02381 12.3092 5.55556 11.1787 5.55556 10C5.55556 8.82126 6.02381 7.6908 6.8573 6.8573C7.6908 6.02381 8.82126 5.55556 10 5.55556ZM10 7.77778C9.41063 7.77778 8.8454 8.0119 8.42865 8.42865C8.0119 8.8454 7.77778 9.41063 7.77778 10C7.77778 10.5894 8.0119 11.1546 8.42865 11.5713C8.8454 11.9881 9.41063 12.2222 10 12.2222C10.5894 12.2222 11.1546 11.9881 11.5713 11.5713C11.9881 11.1546 12.2222 10.5894 12.2222 10C12.2222 9.41063 11.9881 8.8454 11.5713 8.42865C11.1546 8.0119 10.5894 7.77778 10 7.77778Z" fill="black"/>
</svg>
